<?xml version="1.0" standalone="no"?>
<!DOCTYPE svg PUBLIC "-//W3C//DTD SVG 20010904//EN"
 "http://www.w3.org/TR/2001/REC-SVG-20010904/DTD/svg10.dtd">
<svg version="1.0" xmlns="http://www.w3.org/2000/svg"
 width="122.000000pt" height="122.000000pt" viewBox="0 0 122.000000 122.000000"
 preserveAspectRatio="xMidYMid meet">
<metadata>
Created by potrace 1.14, written by Peter Selinger 2001-2017
</metadata>
<g transform="translate(0.000000,122.000000) scale(0.100000,-0.100000)"
fill="#000000" stroke="none">
<path d="M475 1206 c-159 -51 -279 -185 -311 -350 -32 -163 44 -390 201 -598
69 -90 190 -224 222 -245 24 -16 26 -15 90 48 269 264 415 573 374 792 -29
161 -145 295 -299 348 -65 22 -214 25 -277 5z m240 -41 c72 -19 139 -61 194
-120 194 -210 113 -544 -220 -907 -39 -43 -75 -78 -81 -78 -32 0 -242 261
-308 382 -72 134 -93 209 -94 328 -1 100 1 108 33 175 90 183 279 271 476 220z"/>
<path d="M530 1136 c-213 -46 -338 -257 -277 -466 61 -209 284 -317 494 -239
80 31 171 121 203 204 35 89 34 209 -2 287 -76 164 -245 251 -418 214z m211
-62 c203 -91 258 -354 109 -517 -133 -146 -348 -149 -482 -6 -66 70 -91 141
-86 239 6 92 33 156 93 215 100 101 237 126 366 69z"/>
<path d="M455 940 c-8 -9 -20 -31 -26 -48 -9 -26 -16 -32 -38 -30 -36 3 -51
-8 -51 -39 0 -16 7 -27 20 -30 18 -5 20 -14 20 -98 0 -99 3 -105 55 -105 41 0
55 11 55 41 l0 30 118 -3 c109 -3 117 -4 117 -23 0 -11 4 -26 8 -32 10 -16 83
-17 93 -2 4 7 7 51 7 99 0 77 2 88 20 96 44 20 21 68 -32 66 -24 0 -30 5 -40
38 -6 22 -17 43 -24 47 -6 4 -74 8 -150 8 -114 1 -140 -2 -152 -15z m292 -27
c3 -10 17 -45 31 -78 19 -45 25 -79 26 -135 1 -75 1 -75 -27 -78 -26 -3 -27
-2 -24 32 l4 36 -148 0 -149 0 0 -35 c0 -31 -3 -35 -25 -35 -25 0 -25 1 -25
78 0 43 4 82 9 88 5 5 16 34 26 64 10 30 22 61 28 68 7 8 47 12 139 12 114 0
129 -2 135 -17z m-337 -87 c0 -8 -8 -13 -17 -11 -10 2 -20 4 -23 4 -7 2 23 21
33 21 4 0 7 -6 7 -14z m424 -6 c-10 -4 -23 -5 -28 -2 -5 3 -1 9 10 12 10 4 23
5 28 2 5 -3 1 -9 -10 -12z"/>
<path d="M514 912 c-27 -3 -35 -10 -51 -50 -24 -58 -20 -72 20 -74 26 -1 23
-2 -13 -7 -33 -4 -46 -11 -48 -25 -5 -23 8 -35 42 -42 42 -7 69 12 63 46 l-6
28 96 0 c82 0 94 -3 79 -14 -17 -12 -15 -52 2 -55 71 -12 111 6 92 42 -7 12
-22 19 -43 20 -30 1 -30 1 -7 8 28 8 30 29 6 86 -12 28 -21 35 -43 36 -15 0
-57 1 -93 2 -36 1 -79 1 -96 -1z m207 -49 c18 -49 17 -50 -113 -49 l-123 1 3
24 c5 45 17 50 123 49 97 -1 101 -2 110 -25z m-228 -120 c-7 -2 -21 -2 -30 0
-10 3 -4 5 12 5 17 0 24 -2 18 -5z m260 0 c-7 -2 -19 -2 -25 0 -7 3 -2 5 12 5
14 0 19 -2 13 -5z"/>
</g>
</svg>
